<svg width="34" height="34" viewBox="0 0 34 34" fill="none" xmlns="http://www.w3.org/2000/svg">
<path d="M22.9583 1H10.2083C5.12271 1 1 5.12271 1 10.2083V22.9583C1 28.044 5.12271 32.1667 10.2083 32.1667H22.9583C28.044 32.1667 32.1667 28.044 32.1667 22.9583V10.2083C32.1667 5.12271 28.044 1 22.9583 1Z" stroke="#87C4FF" stroke-width="2"/>
<path d="M17.801 8.80628C17.801 8.08498 17.2162 7.50024 16.4949 7.50024C15.7736 7.50024 15.1889 8.08498 15.1889 8.80628V24.4787C15.1889 25.2 15.7736 25.7847 16.4949 25.7847C17.2162 25.7847 17.801 25.2 17.801 24.4787V8.80628Z" fill="#39A7FF"/>
<path d="M24.3314 17.9481C25.0527 17.9481 25.6374 17.3634 25.6374 16.6421C25.6374 15.9208 25.0527 15.336 24.3314 15.336L8.65894 15.336C7.93764 15.336 7.3529 15.9208 7.3529 16.6421C7.3529 17.3634 7.93764 17.9481 8.65894 17.9481H24.3314Z" fill="#39A7FF"/>
</svg>
