<svg width="150" height="32" viewBox="0 0 150 32" fill="none" xmlns="http://www.w3.org/2000/svg">
<path fill-rule="evenodd" clip-rule="evenodd" d="M0 22.8571L2.25564 21.4286C4.51128 19.7143 9.02256 16.8571 13.5338 19.1429C18.0451 21.4286 22.8383 28.8571 27.3496 29.7143C31.8609 30.5714 36.3722 24.2857 40.8835 20.5714C45.3947 16.8571 49.906 15.1429 54.4173 16.8571C59.2105 18.2857 63.7218 22.8571 68.2331 26.5714C72.7444 30.5714 77.2556 33.4286 81.7669 29.7143C86.2782 26 90.7895 15.1429 95.5827 13.7143C100.094 12.2857 104.605 19.7143 109.117 19.7143C113.628 19.7143 118.139 12.2857 122.65 12.2857C127.162 12.2857 131.955 19.7143 136.466 24.2857C140.977 28.8571 145.489 30.5714 147.744 31.1429L150 32V0H147.744C145.489 0 140.977 0 136.466 0C131.955 0 127.162 0 122.65 0C118.139 0 113.628 0 109.117 0C104.605 0 100.094 0 95.5827 0C90.7895 0 86.2782 0 81.7669 0C77.2556 0 72.7444 0 68.2331 0C63.7218 0 59.2105 0 54.4173 0C49.906 0 45.3947 0 40.8835 0C36.3722 0 31.8609 0 27.3496 0C22.8383 0 18.0451 0 13.5338 0C9.02256 0 4.51128 0 2.25564 0H0V22.8571Z" fill="#0099FF"/>
</svg>
